<svg width="30" height="30" viewBox="0 0 30 30" fill="none" xmlns="http://www.w3.org/2000/svg">
<g id="&#225;&#132;&#131;&#225;&#133;&#162;&#225;&#132;&#140;&#225;&#133;&#181; 2 &#225;&#132;&#137;&#225;&#133;&#161;&#225;&#132;&#135;&#225;&#133;&#169;&#225;&#134;&#171; 5">
<path id="Vector" d="M5.13316 16.3867L8.3163 17.0007C9.03758 17.1378 9.56214 17.7816 9.56214 18.5386C9.56214 19.403 8.87663 20.1004 8.03614 20.1004H4.59668" stroke="#777777" stroke-linecap="round"/>
<path id="Vector_2" d="M25.5374 16.3867L22.3542 17.0007C21.633 17.1378 21.1084 17.7816 21.1084 18.5386C21.1084 19.403 21.7939 20.1004 22.6344 20.1004H26.0739" stroke="#777777" stroke-linecap="round"/>
<path id="Vector_3" d="M6.64055 14.6226L5.07282 16.2261C4.72113 16.5897 4.52441 17.0785 4.52441 17.5852V21.7221C4.52441 22.7831 5.36491 23.6475 6.40807 23.6475H22.282H24.279C25.3162 23.6475 26.1626 22.7831 26.1626 21.7221V17.9905V17.5852C26.1626 17.0785 25.9659 16.5897 25.6142 16.2261L24.0465 14.6226M6.64055 14.6226H24.0405M6.64055 14.6226L8.23212 9.35909C8.47652 8.55437 9.20375 8 10.0323 8H20.8455C21.6919 8 22.437 8.57821 22.6576 9.4187L24.0405 14.6166" stroke="#777777" stroke-linecap="round"/>
<path id="Vector_4" d="M24.046 14.5039L25.2203 13.2998M6.75927 14.5039L5.58496 13.2998" stroke="#777777" stroke-linecap="round"/>
</g>
</svg>
