<svg width="30" height="30" viewBox="0 0 30 30" fill="none" xmlns="http://www.w3.org/2000/svg">
<g id="&#225;&#132;&#131;&#225;&#133;&#162;&#225;&#132;&#140;&#225;&#133;&#181; 2 &#225;&#132;&#137;&#225;&#133;&#161;&#225;&#132;&#135;&#225;&#133;&#169;&#225;&#134;&#171; 7 1">
<path id="Vector" d="M15.0437 21.9123C24.6062 21.3748 22.625 12.9311 21.5937 9.88105C21.4312 9.39981 20.8 9.30605 20.5 9.7123L19.8687 10.5623C19.6062 10.9123 19.075 10.8936 18.8375 10.5248L15.525 5.2623C15.2812 4.8748 14.7125 4.8748 14.4687 5.2623L11.1562 10.5248C10.925 10.8998 10.3875 10.9186 10.125 10.5623L9.49374 9.7123C9.19374 9.30605 8.56249 9.40606 8.39999 9.88105C7.36249 12.9311 5.38749 21.3748 14.95 21.9123C14.9812 21.9123 15.0125 21.9123 15.0437 21.9123Z" stroke="#777777" stroke-miterlimit="10"/>
<path id="Vector_2" d="M14.8562 21.875C20.4749 21.5625 19.3124 16.5938 18.7062 14.8063C18.6124 14.525 18.2374 14.4688 18.0624 14.7063L17.6937 15.2062C17.5374 15.4125 17.2249 15.4 17.0874 15.1813L15.1437 12.0875C14.9999 11.8563 14.6687 11.8563 14.5249 12.0875L12.5812 15.1813C12.4437 15.4 12.1312 15.4125 11.9749 15.2062L11.6062 14.7063C11.4312 14.4688 11.0562 14.525 10.9624 14.8063C10.3562 16.6 9.19365 21.5625 14.8124 21.875C14.8312 21.875 14.8499 21.875 14.8687 21.875H14.8562Z" stroke="#777777" stroke-miterlimit="10"/>
<path id="Vector_3" d="M7.92506 19.2002L3.21256 21.2502C2.60006 21.5189 2.33131 22.3314 2.61256 23.0752L3.00631 24.1002C3.29381 24.8439 4.01881 25.2252 4.63131 24.9564L13.3876 21.6939" stroke="#777777" stroke-linecap="round" stroke-linejoin="round"/>
<path id="Vector_4" d="M22.0748 19.2002L26.7873 21.2502C27.3998 21.5189 27.6686 22.3314 27.3873 23.0752L26.9936 24.1002C26.7061 24.8439 25.9811 25.2252 25.3686 24.9564L16.6123 21.6939" stroke="#777777" stroke-linecap="round" stroke-linejoin="round"/>
</g>
</svg>
