<svg width="108" height="94" viewBox="0 0 108 94" fill="none" xmlns="http://www.w3.org/2000/svg" xmlns:xlink="http://www.w3.org/1999/xlink">
<path d="M40.285,30.214C40.285,32.885 39.224,35.447 37.335,37.336C35.446,39.225 32.885,40.286 30.214,40.286C27.542,40.286 24.981,39.225 23.092,37.336C21.203,35.447 20.142,32.885 20.142,30.214C20.142,27.543 21.203,24.982 23.092,23.093C24.981,21.204 27.542,20.143 30.214,20.143C32.885,20.143 35.446,21.204 37.335,23.093C39.224,24.982 40.285,27.543 40.285,30.214Z" fill="#D3D3D3"/>
<path d="M13.429,0C9.867,0 6.451,1.415 3.933,3.933C1.415,6.451 0,9.867 0,13.429L0,80.571C0,84.133 1.415,87.549 3.933,90.067C6.451,92.585 9.867,94 13.429,94L94,94C97.561,94 100.977,92.585 103.495,90.067C106.014,87.549 107.429,84.133 107.429,80.571L107.429,13.429C107.429,9.867 106.014,6.451 103.495,3.933C100.977,1.415 97.561,0 94,0L13.429,0ZM94,6.714C95.781,6.714 97.489,7.422 98.748,8.681C100.007,9.94 100.714,11.648 100.714,13.429L100.714,57.071L75.354,43.999C74.725,43.683 74.012,43.574 73.317,43.686C72.621,43.798 71.979,44.126 71.48,44.623L46.57,69.533L28.71,57.635C28.065,57.206 27.292,57.013 26.521,57.089C25.75,57.165 25.029,57.505 24.48,58.052L6.714,73.857L6.714,13.429C6.714,11.648 7.422,9.94 8.681,8.681C9.94,7.422 11.648,6.714 13.429,6.714L94,6.714Z" fill="#D3D3D3"/>
</svg>
