<svg width="30" height="30" viewBox="0 0 30 30" fill="none" xmlns="http://www.w3.org/2000/svg">
<g id="&#225;&#132;&#131;&#225;&#133;&#162;&#225;&#132;&#140;&#225;&#133;&#181; 2 &#225;&#132;&#137;&#225;&#133;&#161;&#225;&#132;&#135;&#225;&#133;&#169;&#225;&#134;&#171; 7">
<g id="Group 404">
<path id="Vector" d="M8.52619 14.6838L4.73293 19.9043C4.41818 20.3385 4.46702 20.93 4.84147 21.3098L8.22773 24.6961C8.67814 25.1465 9.4216 25.114 9.8286 24.6256L11.0876 23.1169C11.4729 22.6557 12.1567 22.596 12.6179 22.9758L17.4097 26.9699C17.8873 27.3715 18.609 27.2846 18.978 26.78L25.2621 18.2546C25.6149 17.7771 25.5172 17.1096 25.0505 16.7514L19.6672 12.6108C19.2059 12.2581 18.5439 12.3287 18.1694 12.7736L16.7856 14.4342C16.4166 14.8792 15.7654 14.9552 15.2987 14.6079L13.9529 13.5985" stroke="#777777" stroke-linecap="round" stroke-linejoin="round"/>
<path id="Vector_2" d="M17.1708 16.6099L14.1318 20.9512" stroke="#777777" stroke-linecap="round" stroke-linejoin="round"/>
<path id="Vector_3" d="M14.495 9.25679C14.495 7.33031 12.8181 5.79455 10.8428 6.02248C9.42101 6.1907 8.23799 7.31946 8.02092 8.73583C7.85269 9.81574 8.22171 10.8197 8.89462 11.5143C9.44272 12.0787 9.95825 12.6756 10.3544 13.3594L10.8482 14.2114C11.0219 14.5098 11.456 14.5098 11.6243 14.2114L12.1181 13.3539C12.4817 12.7299 12.905 12.1384 13.4368 11.65C14.0825 11.053 14.4895 10.2065 14.4895 9.25679H14.495Z" stroke="#777777" stroke-linecap="round" stroke-linejoin="round"/>
</g>
</g>
</svg>
