<svg width="28" height="27" viewBox="0 0 28 27" fill="none" xmlns="http://www.w3.org/2000/svg">
<g id="&#225;&#132;&#131;&#225;&#133;&#162;&#225;&#132;&#140;&#225;&#133;&#181; 2 &#225;&#132;&#137;&#225;&#133;&#161;&#225;&#132;&#135;&#225;&#133;&#169;&#225;&#134;&#171; 3">
<g id="Group">
<path id="Vector" d="M18.5453 6.795C18.5228 9.25875 16.4471 11.25 14.0003 11.25C11.5534 11.25 9.47776 9.25875 9.45526 6.795C9.43276 4.2975 11.5196 2.25 14.0003 2.25C16.4809 2.25 18.5678 4.2975 18.5453 6.795Z" stroke="#777777" stroke-miterlimit="10"/>
<path id="Vector_2" d="M6.46289 5.625H21.5379" stroke="#777777" stroke-linecap="round" stroke-linejoin="round"/>
<path id="Vector_3" d="M15.6881 2.75049L15.1875 5.06236" stroke="#777777" stroke-linecap="round" stroke-linejoin="round"/>
<path id="Vector_4" d="M12.3125 2.75049L12.8131 5.06236" stroke="#777777" stroke-linecap="round" stroke-linejoin="round"/>
</g>
<path id="Vector_5" d="M22.7129 22.894L22.0941 18.8159C21.6441 15.8346 19.2929 13.6465 16.5479 13.6465H11.4516C8.701 13.6465 6.35538 15.8346 5.90538 18.8159L5.28663 22.894C5.17413 23.6477 5.70288 24.334 6.39475 24.334H21.6048C22.3023 24.334 22.831 23.6477 22.7129 22.894Z" stroke="#777777" stroke-linecap="round" stroke-linejoin="round"/>
</g>
</svg>
