<svg width="46" height="36" viewBox="0 0 46 36" fill="none" xmlns="http://www.w3.org/2000/svg" xmlns:xlink="http://www.w3.org/1999/xlink">
<path d="M6.832,19.652L21.418,32.167C21.794,32.489 22.005,32.926 22.005,33.382C22.005,33.838 21.794,34.275 21.418,34.597C21.043,34.919 20.533,35.1 20.002,35.1C19.471,35.1 18.962,34.919 18.586,34.597L0.588,19.151C0.401,18.992 0.254,18.802 0.153,18.594C0.052,18.385 0,18.162 0,17.936C0,17.71 0.052,17.487 0.153,17.278C0.254,17.07 0.401,16.881 0.588,16.721L18.586,1.275C18.962,0.953 19.471,0.772 20.002,0.772C20.533,0.772 21.043,0.953 21.418,1.275C21.794,1.598 22.005,2.035 22.005,2.49C22.005,2.946 21.794,3.383 21.418,3.705L6.832,16.22L44,16.22C44.531,16.22 45.039,16.401 45.414,16.723C45.789,17.044 46,17.481 46,17.936C46,18.391 45.789,18.828 45.414,19.15C45.039,19.472 44.531,19.652 44,19.652L6.832,19.652Z" clip-rule="evenodd" fill-rule="evenodd" fill="#1E1E1E"/>
</svg>
