<svg width="34" height="34" viewBox="0 0 34 34" fill="none" xmlns="http://www.w3.org/2000/svg" xmlns:xlink="http://www.w3.org/1999/xlink">
<path d="M15.3,3.967L15.3,1.7C15.3,1.249 15.479,0.817 15.798,0.498C16.117,0.179 16.549,0 17,0C17.451,0 17.883,0.179 18.202,0.498C18.521,0.817 18.7,1.249 18.7,1.7L18.7,3.967C18.7,4.418 18.521,4.85 18.202,5.169C17.883,5.488 17.451,5.667 17,5.667C16.549,5.667 16.117,5.488 15.798,5.169C15.479,4.85 15.3,4.418 15.3,3.967ZM26.633,17C26.633,18.905 26.068,20.768 25.01,22.352C23.951,23.936 22.447,25.171 20.687,25.9C18.926,26.629 16.989,26.82 15.121,26.448C13.252,26.077 11.535,25.159 10.188,23.812C8.841,22.465 7.923,20.748 7.552,18.879C7.18,17.011 7.371,15.074 8.1,13.313C8.829,11.553 10.064,10.049 11.648,8.99C13.232,7.932 15.095,7.367 17,7.367C19.554,7.369 22.003,8.385 23.809,10.191C25.615,11.997 26.631,14.446 26.633,17ZM23.233,17C23.233,15.767 22.868,14.562 22.183,13.537C21.498,12.512 20.524,11.713 19.385,11.241C18.246,10.769 16.993,10.646 15.784,10.886C14.575,11.127 13.464,11.721 12.592,12.592C11.721,13.464 11.127,14.575 10.886,15.784C10.646,16.993 10.769,18.246 11.241,19.385C11.713,20.524 12.512,21.498 13.537,22.183C14.562,22.868 15.767,23.233 17,23.233C18.653,23.231 20.237,22.574 21.406,21.406C22.574,20.237 23.231,18.653 23.233,17ZM6.164,8.569C6.322,8.728 6.51,8.853 6.716,8.939C6.923,9.024 7.144,9.068 7.368,9.068C7.592,9.068 7.813,9.024 8.02,8.939C8.226,8.853 8.414,8.728 8.572,8.569C8.73,8.411 8.856,8.224 8.941,8.017C9.027,7.81 9.071,7.589 9.071,7.365C9.071,7.142 9.027,6.92 8.941,6.714C8.856,6.507 8.73,6.319 8.572,6.161L6.872,4.461C6.553,4.142 6.12,3.962 5.668,3.962C5.216,3.962 4.783,4.142 4.464,4.461C4.145,4.78 3.965,5.214 3.965,5.665C3.965,6.117 4.145,6.55 4.464,6.869L6.164,8.569ZM6.164,25.428L4.464,27.128C4.306,27.286 4.18,27.474 4.095,27.68C4.009,27.887 3.965,28.108 3.965,28.332C3.965,28.556 4.009,28.777 4.095,28.984C4.18,29.19 4.306,29.378 4.464,29.536C4.783,29.855 5.216,30.035 5.668,30.035C5.892,30.035 6.113,29.991 6.32,29.905C6.526,29.82 6.714,29.694 6.872,29.536L8.572,27.836C8.892,27.517 9.071,27.084 9.071,26.632C9.071,26.18 8.892,25.747 8.572,25.428C8.253,25.108 7.82,24.929 7.368,24.929C6.916,24.929 6.483,25.108 6.164,25.428ZM26.633,9.067C26.857,9.067 27.078,9.023 27.284,8.938C27.491,8.852 27.678,8.727 27.836,8.569L29.536,6.869C29.694,6.711 29.82,6.524 29.905,6.317C29.991,6.11 30.035,5.889 30.035,5.665C30.035,5.442 29.991,5.22 29.905,5.014C29.82,4.807 29.694,4.619 29.536,4.461C29.378,4.303 29.19,4.178 28.984,4.092C28.777,4.006 28.556,3.962 28.332,3.962C28.108,3.962 27.887,4.006 27.68,4.092C27.474,4.178 27.286,4.303 27.128,4.461L25.428,6.161C25.189,6.399 25.026,6.702 24.959,7.033C24.893,7.364 24.927,7.707 25.056,8.018C25.185,8.33 25.404,8.596 25.685,8.782C25.966,8.969 26.296,9.068 26.633,9.067ZM27.836,25.431C27.517,25.111 27.084,24.932 26.632,24.932C26.18,24.932 25.747,25.111 25.428,25.431C25.108,25.75 24.929,26.183 24.929,26.635C24.929,27.086 25.108,27.52 25.428,27.839L27.128,29.539C27.447,29.858 27.88,30.038 28.332,30.038C28.784,30.038 29.217,29.858 29.536,29.539C29.855,29.22 30.035,28.786 30.035,28.335C30.035,27.883 29.855,27.45 29.536,27.131L27.836,25.431ZM5.667,17C5.667,16.549 5.488,16.117 5.169,15.798C4.85,15.479 4.418,15.3 3.967,15.3L1.7,15.3C1.249,15.3 0.817,15.479 0.498,15.798C0.179,16.117 0,16.549 0,17C0,17.451 0.179,17.883 0.498,18.202C0.817,18.521 1.249,18.7 1.7,18.7L3.967,18.7C4.418,18.7 4.85,18.521 5.169,18.202C5.488,17.883 5.667,17.451 5.667,17ZM17,28.333C16.549,28.333 16.117,28.512 15.798,28.831C15.479,29.15 15.3,29.582 15.3,30.033L15.3,32.3C15.3,32.751 15.479,33.183 15.798,33.502C16.117,33.821 16.549,34 17,34C17.451,34 17.883,33.821 18.202,33.502C18.521,33.183 18.7,32.751 18.7,32.3L18.7,30.033C18.7,29.582 18.521,29.15 18.202,28.831C17.883,28.512 17.451,28.333 17,28.333ZM32.3,15.3L30.033,15.3C29.582,15.3 29.15,15.479 28.831,15.798C28.512,16.117 28.333,16.549 28.333,17C28.333,17.451 28.512,17.883 28.831,18.202C29.15,18.521 29.582,18.7 30.033,18.7L32.3,18.7C32.751,18.7 33.183,18.521 33.502,18.202C33.821,17.883 34,17.451 34,17C34,16.549 33.821,16.117 33.502,15.798C33.183,15.479 32.751,15.3 32.3,15.3Z" fill="#FFFFFF"/>
</svg>
