<svg width="28" height="28" viewBox="0 0 28 28" fill="none" xmlns="http://www.w3.org/2000/svg" xmlns:xlink="http://www.w3.org/1999/xlink">
<path d="M25.822,28L16.022,18.2C15.244,18.822 14.35,19.315 13.339,19.678C12.328,20.041 11.252,20.222 10.111,20.222C7.285,20.222 4.894,19.243 2.937,17.285C0.98,15.327 0.001,12.936 0,10.111C-0.001,7.286 0.978,4.895 2.937,2.937C4.896,0.979 7.287,0 10.111,0C12.935,0 15.327,0.979 17.287,2.937C19.247,4.895 20.225,7.286 20.222,10.111C20.222,11.252 20.041,12.328 19.678,13.339C19.315,14.35 18.822,15.244 18.2,16.022L28,25.822L25.822,28ZM10.111,17.111C12.056,17.111 13.709,16.431 15.07,15.07C16.432,13.71 17.112,12.057 17.111,10.111C17.11,8.166 16.43,6.513 15.07,5.154C13.711,3.794 12.058,3.113 10.111,3.111C8.165,3.109 6.512,3.79 5.154,5.154C3.795,6.517 3.114,8.17 3.111,10.111C3.108,12.052 3.789,13.705 5.154,15.07C6.518,16.435 8.171,17.115 10.111,17.111Z" fill="#398EF3"/>
</svg>
