<svg width="24" height="30" viewBox="0 0 24 30" fill="none" xmlns="http://www.w3.org/2000/svg" xmlns:xlink="http://www.w3.org/1999/xlink">
<path d="M12,0C8.819,0.004 5.768,1.247 3.519,3.456C1.269,5.665 0.004,8.661 0,11.786C-0.003,14.339 0.846,16.823 2.417,18.857C2.417,18.857 2.745,19.28 2.798,19.341L12,30L21.206,19.336C21.254,19.279 21.583,18.857 21.583,18.857L21.584,18.854C23.154,16.82 24.003,14.338 24,11.786C23.996,8.661 22.731,5.665 20.481,3.456C18.232,1.247 15.181,0.004 12,0ZM12,16.071C11.137,16.071 10.293,15.82 9.576,15.349C8.858,14.878 8.299,14.209 7.969,13.426C7.638,12.643 7.552,11.781 7.72,10.95C7.889,10.118 8.304,9.355 8.914,8.755C9.525,8.156 10.302,7.748 11.149,7.582C11.995,7.417 12.873,7.502 13.67,7.826C14.467,8.151 15.149,8.7 15.628,9.405C16.108,10.109 16.364,10.938 16.364,11.786C16.362,12.922 15.902,14.011 15.084,14.815C14.266,15.618 13.157,16.07 12,16.071Z" fill="#FFFFFF"/>
</svg>
