<svg width="14" height="22" viewBox="0 0 14 22" fill="none" xmlns="http://www.w3.org/2000/svg" xmlns:xlink="http://www.w3.org/1999/xlink">
<path d="M11.338,20.29C11.857,20.766 12.664,20.731 13.14,20.212C13.616,19.693 13.581,18.886 13.062,18.41L11.338,20.29ZM2,10L1.138,9.06C0.875,9.302 0.725,9.643 0.725,10C0.725,10.357 0.875,10.698 1.138,10.94L2,10ZM13.062,1.59C13.581,1.114 13.616,0.308 13.14,-0.211C12.664,-0.731 11.857,-0.766 11.338,-0.29L13.062,1.59ZM13.062,18.41L2.861,9.06L1.138,10.94L11.338,20.29L13.062,18.41ZM2.861,10.94L13.062,1.59L11.338,-0.29L1.138,9.06L2.861,10.94Z" transform="rotate(-360 7.1 10)" fill="#5D5D5D"/>
</svg>
