<svg width="14" height="22" viewBox="0 0 14 22" fill="none" xmlns="http://www.w3.org/2000/svg" xmlns:xlink="http://www.w3.org/1999/xlink">
<path d="M11.338,21.64C11.857,22.116 12.664,22.081 13.14,21.561C13.616,21.042 13.581,20.236 13.062,19.76L11.338,21.64ZM2,11.35L1.138,10.41C0.875,10.652 0.725,10.993 0.725,11.35C0.725,11.707 0.875,12.048 1.138,12.29L2,11.35ZM13.062,2.94C13.581,2.464 13.616,1.657 13.14,1.138C12.664,0.619 11.857,0.584 11.338,1.06L13.062,2.94ZM13.062,19.76L2.861,10.41L1.138,12.29L11.338,21.64L13.062,19.76ZM2.861,12.29L13.062,2.94L11.338,1.06L1.138,10.41L2.861,12.29Z" transform="rotate(-360 7.1 11.35)" fill="#5D5D5D"/>
</svg>
